HIERARCHY
ROOT Root
{
	OFFSET 0.00000 0.00000 0.00000
	CHANNELS 6 Xposition Yposition Zposition Zrotation Xrotation Yrotation
	JOINT Hips
	{
		OFFSET 0 0 0	
		CHANNELS 3 Zrotation Xrotation Yrotation
		JOINT Spine
		{
			OFFSET 0 4 0	
			CHANNELS 3 Zrotation Xrotation Yrotation
			JOINT Spine1
			{
				OFFSET 0 19.4 0	
				CHANNELS 3 Zrotation Xrotation Yrotation
				JOINT Spine2
				{
					OFFSET 0 16.6 0	
					CHANNELS 3 Zrotation Xrotation Yrotation
					JOINT LeftCollar
					{
						OFFSET 0 10 0	
						CHANNELS 3 Zrotation Xrotation Yrotation
						JOINT LeftArm
						{
							OFFSET 15.6 -2 3	
							CHANNELS 3 Zrotation Xrotation Yrotation
							JOINT LeftForeArm
							{
								OFFSET 3.5 -27 -1	
								CHANNELS 3 Zrotation Xrotation Yrotation
								JOINT LeftHand
								{
									OFFSET 1 -27 1	
									CHANNELS 3 Zrotation Xrotation Yrotation
									End Site
									{
										OFFSET 0 -15 0
									}
								}
							}
						}
					}
					JOINT RightCollar
					{
						OFFSET 0 10 0	
						CHANNELS 3 Zrotation Xrotation Yrotation
						JOINT RightArm
						{
							OFFSET -15.6 -2 3	
							CHANNELS 3 Zrotation Xrotation Yrotation
							JOINT RightForeArm
							{
								OFFSET -3.5 -27 -1	
								CHANNELS 3 Zrotation Xrotation Yrotation
								JOINT RightHand
								{
									OFFSET -1 -27 1	
									CHANNELS 3 Zrotation Xrotation Yrotation
									End Site
									{
										OFFSET 0 -15 0
									}
								}
							}
						}
					}
					JOINT Neck
					{
						OFFSET 0 10 0	
						CHANNELS 3 Zrotation Xrotation Yrotation
						JOINT Head
						{
							OFFSET 0 12.7 3	
							CHANNELS 3 Zrotation Xrotation Yrotation
							End Site
							{
								OFFSET 0 12.7 3
							}
						}
					}
				}
			}
		}
	}
	JOINT LeftHip
	{
		OFFSET 0 0 0	
		CHANNELS 3 Zrotation Xrotation Yrotation
		JOINT LeftUpLeg
		{
			OFFSET 8.8 -6 0	
			CHANNELS 3 Zrotation Xrotation Yrotation
			JOINT LeftLeg
			{
				OFFSET 0 -39 2	
				CHANNELS 3 Zrotation Xrotation Yrotation
				JOINT LeftFoot
				{
					OFFSET 0 -43 -2	
					CHANNELS 3 Zrotation Xrotation Yrotation
					JOINT LeftFootFront
					{
						OFFSET 0 -7 8.5	
						CHANNELS 3 Zrotation Xrotation Yrotation
						End Site
						{
							OFFSET 0 -0.5 9
						}
					}
				}
				JOINT LeftHeel
				{
					OFFSET 0 -43 -2	
					CHANNELS 3 Zrotation Xrotation Yrotation
					End Site
					{
						OFFSET 0 -7.5 -5
					}
				}
			}
		}
	}
	JOINT RightHip
	{
		OFFSET 0 0 0	
		CHANNELS 3 Zrotation Xrotation Yrotation
		JOINT RightUpLeg
		{
			OFFSET -8.8 -6 0	
			CHANNELS 3 Zrotation Xrotation Yrotation
			JOINT RightLeg
			{
				OFFSET 0 -39 2	
				CHANNELS 3 Zrotation Xrotation Yrotation
				JOINT RightFoot
				{
					OFFSET 0 -43 -2	
					CHANNELS 3 Zrotation Xrotation Yrotation
					JOINT RightFootFront
					{
						OFFSET 0 -7 8.5	
						CHANNELS 3 Zrotation Xrotation Yrotation
						End Site
						{
							OFFSET 0 -0.5 9
						}
					}
				}
				JOINT RightHeel
				{
					OFFSET 0 -43 -2	
					CHANNELS 3 Zrotation Xrotation Yrotation
					End Site
					{
						OFFSET 0 -7.5 -5
					}
				}
			}
		}
	}
}
MOTION
Frames: 16
Frame Time: 0.025
0 95.5 0 -0 0 -0 8.1317 0.64755 27.991 -0.60744 0.035214 -0.073329 -0.60744 0.035213 -0.073324 -0.51025 0.029527 -0.061618 -0 0 -0 2.3792 1.8178 0.73886 -11.208 -1.9277 -21.94 1.7289 0.42491 -1.7682 -0 0 -0 -0.85851 -1.1893 0.92988 1.1664 -3.3919 -2.2 0.69503 5.2471 0.82769 -3.3 -1.0382 -11.933 -3.3 -1.0382 -11.933 -0 0 -0 -0 0 -0 -0 0 -0 -0 0 -0 -0 0 -0 -0 0 -0 -0 0 -0 -0 0 -0 -0 0 -0 -0 0 -0 -0 0 -0 -0 0 -0 
0 95.5 0 -0 0 -0 7.4047 0.066826 27.814 -0.65534 0.08729 -0.087651 -0.65534 0.08729 -0.087647 -0.55049 0.073256 -0.073691 -0 0 -0 2.4682 1.593 0.74412 -11.406 -1.7359 -22.373 1.8818 0.05523 -1.618 -0 0 -0 -0.79423 -1.0607 0.87022 1.2547 -3.0585 -2.2293 0.6207 4.7197 0.91558 -3.0644 -1.6084 -11.933 -3.0644 -1.6084 -11.933 -0 0 -0 -0 0 -0 -0 0 -0 -0 0 -0 -0 0 -0 -0 0 -0 -0 0 -0 -0 0 -0 -0 0 -0 -0 0 -0 -0 0 -0 -0 0 -0 
0 95.5 0 -0 0 -0 6.7263 -0.69589 27.672 -0.68262 0.13715 -0.11593 -0.68262 0.13715 -0.11593 -0.57342 0.11512 -0.097489 -0 0 -0 2.6032 1.411 0.76817 -11.774 -1.7766 -22.381 2.1264 -0.22371 -1.5342 -0 0 -0 -0.75691 -0.83947 0.87192 1.275 -2.7914 -2.2707 0.65602 4.1821 0.9796 -2.7609 -2.0834 -11.938 -2.7609 -2.0834 -11.938 -0 0 -0 -0 0 -0 -0 0 -0 -0 0 -0 -0 0 -0 -0 0 -0 -0 0 -0 -0 0 -0 -0 0 -0 -0 0 -0 -0 0 -0 -0 0 -0 
0 95.5 0 -0 0 -0 5.9105 -1.6026 27.456 -0.67987 0.15542 -0.1718 -0.67987 0.15542 -0.1718 -0.57112 0.13041 -0.14443 -0 0 -0 2.7808 1.2292 0.8384 -12.009 -1.8622 -22.148 2.4003 -0.32173 -1.5793 -0 0 -0 -0.68609 -0.63204 0.9819 1.2 -2.4448 -2.3755 0.76754 3.5862 1.0423 -2.2932 -2.377 -11.985 -2.2932 -2.377 -11.985 -0 0 -0 -0 0 -0 -0 0 -0 -0 0 -0 -0 0 -0 -0 0 -0 -0 0 -0 -0 0 -0 -0 0 -0 -0 0 -0 -0 0 -0 -0 0 -0 
0 95.5 0 -0 0 -0 5.0054 -2.4849 27.064 -0.69746 0.15486 -0.18972 -0.69746 0.15486 -0.18971 -0.5859 0.12993 -0.15949 -0 0 -0 2.9603 1.0067 0.85967 -11.853 -1.9514 -21.962 2.6848 -0.34027 -1.7111 -0 0 -0 -0.63134 -0.48741 1.0282 1.1559 -1.9809 -2.4618 0.86638 2.9291 1.091 -1.6181 -2.5707 -11.998 -1.6181 -2.5707 -11.998 -0 0 -0 -0 0 -0 -0 0 -0 -0 0 -0 -0 0 -0 -0 0 -0 -0 0 -0 -0 0 -0 -0 0 -0 -0 0 -0 -0 0 -0 -0 0 -0 
0 95.5 0 -0 0 -0 4.1143 -3.2745 26.598 -0.73566 0.15763 -0.17279 -0.73566 0.15763 -0.17278 -0.61799 0.13226 -0.14528 -0 0 -0 3.1105 0.76663 0.82823 -11.354 -2.1527 -21.911 2.988 -0.34688 -1.9237 -0 0 -0 -0.63121 -0.36873 0.98809 1.1895 -1.4982 -2.49 0.92601 2.2728 1.1123 -0.83187 -2.6994 -11.977 -0.83187 -2.6994 -11.977 -0 0 -0 -0 0 -0 -0 0 -0 -0 0 -0 -0 0 -0 -0 0 -0 -0 0 -0 -0 0 -0 -0 0 -0 -0 0 -0 -0 0 -0 -0 0 -0 
0 95.5 0 -0 0 -0 3.3041 -3.9938 26.125 -0.78488 0.17234 -0.15255 -0.78487 0.17234 -0.15255 -0.65933 0.14463 -0.1283 -0 0 -0 3.2485 0.53825 0.79725 -10.626 -2.4279 -21.903 3.2819 -0.33276 -2.0294 -0 0 -0 -0.65125 -0.24631 0.95388 1.2487 -1.0613 -2.506 0.97588 1.6569 1.1357 -0.036823 -2.7347 -11.911 -0.036823 -2.7347 -11.911 -0 0 -0 -0 0 -0 -0 0 -0 -0 0 -0 -0 0 -0 -0 0 -0 -0 0 -0 -0 0 -0 -0 0 -0 -0 0 -0 -0 0 -0 -0 0 -0 
0 95.5 0 -0 0 -0 2.6644 -4.6207 25.696 -0.84995 0.18012 -0.14461 -0.84995 0.18012 -0.1446 -0.71399 0.15116 -0.12165 -0 0 -0 3.3747 0.36043 0.76743 -9.7711 -2.6431 -21.786 3.4812 -0.26195 -2.0209 -0 0 -0 -0.70775 -0.10152 0.92615 1.3147 -0.69994 -2.5104 1.0461 1.1223 1.1584 0.67649 -2.6361 -11.791 0.67649 -2.6361 -11.791 -0 0 -0 -0 0 -0 -0 0 -0 -0 0 -0 -0 0 -0 -0 0 -0 -0 0 -0 -0 0 -0 -0 0 -0 -0 0 -0 -0 0 -0 -0 0 -0 
0 95.5 0 -0 0 -0 2.221 -5.0649 25.339 -0.92181 0.16015 -0.14263 -0.92181 0.16015 -0.14263 -0.77435 0.13438 -0.11998 -0 0 -0 3.4796 0.2437 0.73094 -8.9269 -2.7466 -21.549 3.5544 -0.11739 -1.9978 -0 0 -0 -0.81075 0.014759 0.88635 1.3963 -0.41107 -2.4922 1.1325 0.71625 1.1684 1.2242 -2.3837 -11.662 1.2242 -2.3837 -11.662 -0 0 -0 -0 0 -0 -0 0 -0 -0 0 -0 -0 0 -0 -0 0 -0 -0 0 -0 -0 0 -0 -0 0 -0 -0 0 -0 -0 0 -0 -0 0 -0 
0 95.5 0 -0 0 -0 1.9399 -5.2185 25.009 -0.99569 0.10974 -0.13306 -0.99569 0.10974 -0.13306 -0.8364 0.09203 -0.1119 -0 0 -0 3.5552 0.17952 0.6951 -8.1489 -2.7399 -21.27 3.5175 0.095358 -1.9965 -0 0 -0 -0.91871 0.052226 0.85257 1.4976 -0.18434 -2.4751 1.196 0.45703 1.1668 1.5622 -1.998 -11.564 1.5622 -1.998 -11.564 -0 0 -0 -0 0 -0 -0 0 -0 -0 0 -0 -0 0 -0 -0 0 -0 -0 0 -0 -0 0 -0 -0 0 -0 -0 0 -0 -0 0 -0 -0 0 -0 
0 95.5 0 -0 0 -0 1.7875 -5.0296 24.645 -1.0661 0.044929 -0.11978 -1.0661 0.044928 -0.11978 -0.89556 0.03759 -0.10067 -0 0 -0 3.5827 0.16124 0.68296 -7.4285 -2.6078 -21.01 3.3752 0.32058 -1.997 -0 0 -0 -1.0039 0.0061206 0.85341 1.6404 -0.033227 -2.4848 1.1842 0.35023 1.1646 1.6899 -1.5523 -11.461 1.6899 -1.5523 -11.461 -0 0 -0 -0 0 -0 -0 0 -0 -0 0 -0 -0 0 -0 -0 0 -0 -0 0 -0 -0 0 -0 -0 0 -0 -0 0 -0 -0 0 -0 -0 0 -0 
0 95.5 0 -0 0 -0 1.7899 -4.5445 24.265 -1.1292 -0.0093291 -0.12046 -1.1292 -0.0093292 -0.12046 -0.94852 -0.0079958 -0.10117 -0 0 -0 3.5415 0.1916 0.6964 -6.7829 -2.3569 -20.755 3.1424 0.48854 -1.9661 -0 0 -0 -1.0681 -0.084998 0.87066 1.8357 0.0048788 -2.5069 1.0713 0.40108 1.168 1.6227 -1.1326 -11.289 1.6227 -1.1326 -11.289 -0 0 -0 -0 0 -0 -0 0 -0 -0 0 -0 -0 0 -0 -0 0 -0 -0 0 -0 -0 0 -0 -0 0 -0 -0 0 -0 -0 0 -0 -0 0 -0 
0 95.5 0 -0 0 -0 1.9178 -3.8657 23.893 -1.1626 -0.050196 -0.13338 -1.1626 -0.050195 -0.13338 -0.97656 -0.042347 -0.11197 -0 0 -0 3.4312 0.27431 0.72192 -6.2734 -2.0381 -20.445 2.8607 0.56915 -1.8898 -0 0 -0 -1.1103 -0.1839 0.87657 2.0537 -0.084917 -2.5162 0.87493 0.59812 1.1726 1.416 -0.79678 -11.018 1.416 -0.79678 -11.018 -0 0 -0 -0 0 -0 -0 0 -0 -0 0 -0 -0 0 -0 -0 0 -0 -0 0 -0 -0 0 -0 -0 0 -0 -0 0 -0 -0 0 -0 -0 0 -0 
0 95.5 0 -0 0 -0 2.0759 -3.0956 23.562 -1.1581 -0.075361 -0.16058 -1.1581 -0.075361 -0.16059 -0.97278 -0.063521 -0.13479 -0 0 -0 3.2794 0.37694 0.75731 -5.8817 -1.7873 -20.011 2.5959 0.59454 -1.7981 -0 0 -0 -1.0959 -0.29996 0.87408 2.2546 -0.24857 -2.5124 0.61652 0.88035 1.1787 1.1836 -0.53578 -10.699 1.1836 -0.53578 -10.699 -0 0 -0 -0 0 -0 -0 0 -0 -0 0 -0 -0 0 -0 -0 0 -0 -0 0 -0 -0 0 -0 -0 0 -0 -0 0 -0 -0 0 -0 -0 0 -0 
0 95.5 0 -0 0 -0 2.1613 -2.3396 23.275 -1.1181 -0.084938 -0.18443 -1.1181 -0.084939 -0.18443 -0.93916 -0.07159 -0.15481 -0 0 -0 3.1052 0.48173 0.77822 -5.4494 -1.6807 -19.508 2.3793 0.66513 -1.7609 -0 0 -0 -1.0186 -0.40057 0.84444 2.4208 -0.44151 -2.4851 0.31481 1.173 1.1767 1.0041 -0.2471 -10.462 1.0041 -0.2471 -10.462 -0 0 -0 -0 0 -0 -0 0 -0 -0 0 -0 -0 0 -0 -0 0 -0 -0 0 -0 -0 0 -0 -0 0 -0 -0 0 -0 -0 0 -0 -0 0 -0 
0 95.5 0 -0 0 -0 2.0076 -1.5661 22.926 -1.0517 -0.12324 -0.18047 -1.0517 -0.12324 -0.18047 -0.8834 -0.10375 -0.15144 -0 0 -0 2.9378 0.57936 0.792 -4.7298 -1.6235 -19.082 2.1563 0.82373 -1.795 -0 0 -0 -0.85817 -0.4722 0.82918 2.5463 -0.59282 -2.4701 -0.02053 1.4093 1.1649 0.9284 0.09899 -10.332 0.9284 0.09899 -10.332 -0 0 -0 -0 0 -0 -0 0 -0 -0 0 -0 -0 0 -0 -0 0 -0 -0 0 -0 -0 0 -0 -0 0 -0 -0 0 -0 -0 0 -0 -0 0 -0 
